<svg xmlns="http://www.w3.org/2000/svg" width="32" height="32" viewBox="0 0 32 32" fill="none">
  <path d="M27.6846 5.47988C27.9785 5.21194 28.0582 4.78013 27.8792 4.42301C27.7001 4.06589 27.3169 3.86538 26.9292 3.94429L6.38432 8.2926C6.01798 8.36625 5.74543 8.66748 5.70467 9.03961C5.66391 9.41175 5.86332 9.76778 6.20032 9.91975L13.505 13.1093L19.4806 7.16444C19.7904 6.85573 20.2959 6.85573 20.6057 7.16444C20.9155 7.47315 20.9155 7.97621 20.6057 8.28491L14.6301 14.2297L17.8308 21.511C17.9834 21.8467 18.339 22.0456 18.7103 22.0058C19.0816 21.9659 19.3827 21.6955 19.4576 21.3304L23.8493 0.868997C23.9291 0.482314 23.7284 0.100399 23.3706 -0.0777888C23.0127 -0.255977 22.5795 -0.176749 22.3107 0.116108L15.2991 7.09294L8.96589 4.20269C8.20349 3.85332 7.32291 4.0058 6.73016 4.59692C6.13741 5.18804 5.98276 6.06682 6.33027 6.82933L13.2113 20.7034L8.20406 25.6908C7.8943 25.9995 7.8943 26.5025 8.20406 26.8112C8.51381 27.12 9.01864 27.12 9.32839 26.8112L14.3357 21.8238L28.254 28.6759C29.0176 29.0222 29.8971 28.8673 30.4885 28.2768C31.0798 27.6864 31.2325 26.8079 30.8836 26.0462L27.9795 19.7363L27.6846 5.47988Z" fill="#3D5AFE"/>
</svg>