<svg width="1000" height="1000" viewBox="0 0 1000 1000" xmlns="http://www.w3.org/2000/svg">
  <defs>
    <pattern id="smallGrid" width="10" height="10" patternUnits="userSpaceOnUse">
      <path d="M 10 0 L 0 0 0 10" fill="none" stroke="#3D5AFE" stroke-width="0.5" opacity="0.2"/>
    </pattern>
    <pattern id="grid" width="100" height="100" patternUnits="userSpaceOnUse">
      <rect width="100" height="100" fill="url(#smallGrid)"/>
      <path d="M 100 0 L 0 0 0 100" fill="none" stroke="#3D5AFE" stroke-width="1" opacity="0.3"/>
    </pattern>
  </defs>

  <rect width="100%" height="100%" fill="url(#grid)" />
  
  <!-- Nodes and connections -->
  <g opacity="0.7">
    <!-- Nodes -->
    <circle cx="200" cy="200" r="8" fill="#3D5AFE" />
    <circle cx="400" cy="150" r="6" fill="#3D5AFE" />
    <circle cx="600" cy="250" r="7" fill="#3D5AFE" />
    <circle cx="800" cy="200" r="5" fill="#3D5AFE" />
    <circle cx="300" cy="400" r="6" fill="#3D5AFE" />
    <circle cx="500" cy="500" r="8" fill="#3D5AFE" />
    <circle cx="700" cy="450" r="6" fill="#3D5AFE" />
    <circle cx="200" cy="600" r="7" fill="#3D5AFE" />
    <circle cx="400" cy="650" r="5" fill="#3D5AFE" />
    <circle cx="600" cy="600" r="8" fill="#3D5AFE" />
    <circle cx="800" cy="700" r="6" fill="#3D5AFE" />
    <circle cx="300" cy="800" r="7" fill="#3D5AFE" />
    <circle cx="500" cy="850" r="6" fill="#3D5AFE" />
    <circle cx="700" cy="800" r="8" fill="#3D5AFE" />
    
    <!-- Connections -->
    <line x1="200" y1="200" x2="400" y2="150" stroke="#3D5AFE" stroke-width="1" opacity="0.5" />
    <line x1="400" y1="150" x2="600" y2="250" stroke="#3D5AFE" stroke-width="1" opacity="0.5" />
    <line x1="600" y1="250" x2="800" y2="200" stroke="#3D5AFE" stroke-width="1" opacity="0.5" />
    <line x1="200" y1="200" x2="300" y2="400" stroke="#3D5AFE" stroke-width="1" opacity="0.5" />
    <line x1="400" y1="150" x2="500" y2="500" stroke="#3D5AFE" stroke-width="1" opacity="0.5" />
    <line x1="600" y1="250" x2="700" y2="450" stroke="#3D5AFE" stroke-width="1" opacity="0.5" />
    <line x1="300" y1="400" x2="500" y2="500" stroke="#3D5AFE" stroke-width="1" opacity="0.5" />
    <line x1="500" y1="500" x2="700" y2="450" stroke="#3D5AFE" stroke-width="1" opacity="0.5" />
    <line x1="300" y1="400" x2="200" y2="600" stroke="#3D5AFE" stroke-width="1" opacity="0.5" />
    <line x1="500" y1="500" x2="400" y2="650" stroke="#3D5AFE" stroke-width="1" opacity="0.5" />
    <line x1="700" y1="450" x2="600" y2="600" stroke="#3D5AFE" stroke-width="1" opacity="0.5" />
    <line x1="200" y1="600" x2="400" y2="650" stroke="#3D5AFE" stroke-width="1" opacity="0.5" />
    <line x1="400" y1="650" x2="600" y2="600" stroke="#3D5AFE" stroke-width="1" opacity="0.5" />
    <line x1="600" y1="600" x2="800" y2="700" stroke="#3D5AFE" stroke-width="1" opacity="0.5" />
    <line x1="200" y1="600" x2="300" y2="800" stroke="#3D5AFE" stroke-width="1" opacity="0.5" />
    <line x1="400" y1="650" x2="500" y2="850" stroke="#3D5AFE" stroke-width="1" opacity="0.5" />
    <line x1="600" y1="600" x2="700" y2="800" stroke="#3D5AFE" stroke-width="1" opacity="0.5" />
    <line x1="300" y1="800" x2="500" y2="850" stroke="#3D5AFE" stroke-width="1" opacity="0.5" />
    <line x1="500" y1="850" x2="700" y2="800" stroke="#3D5AFE" stroke-width="1" opacity="0.5" />
  </g>
</svg>